<svg width="37" height="36" viewBox="0 0 37 36" fill="none" xmlns="http://www.w3.org/2000/svg">
<path d="M36.0722 16.7908C35.9318 17.0295 35.8318 17.3069 35.6439 17.4991C35.4642 17.6957 35.2282 17.8321 34.9682 17.8897C34.7081 17.9474 34.4366 17.9234 34.1906 17.8212C33.636 17.6167 33.3314 17.1954 33.2726 16.6074C33.2609 16.4322 33.2579 16.2564 33.2639 16.0808C33.2639 13.6393 33.2639 11.1984 33.2639 8.75805C33.2639 6.89401 32.0852 5.71976 30.2177 5.71713H28.6274C28.6274 6.21035 28.645 6.6825 28.6274 7.15817C28.6209 7.4049 28.549 7.64549 28.4192 7.85538C28.2893 8.06528 28.1061 8.23697 27.8882 8.35296C27.6704 8.46894 27.4256 8.52506 27.179 8.51559C26.9324 8.50612 26.6927 8.43141 26.4843 8.29906C26.2826 8.17762 26.1161 8.00568 26.0011 7.80022C25.8861 7.59476 25.8267 7.36288 25.8287 7.12745C25.8182 6.67373 25.8287 6.21912 25.8287 5.74083H19.4327V6.82204C19.4327 7.87518 18.9061 8.51496 18.0382 8.5211C17.1606 8.52724 16.6243 7.87957 16.6243 6.80537V5.74083H10.3055C10.3055 6.19104 10.3134 6.65179 10.3055 7.11341C10.3071 7.40825 10.2154 7.69602 10.0434 7.93549C9.87136 8.17497 9.62797 8.35385 9.34807 8.4465C9.13972 8.51709 8.91763 8.53741 8.69993 8.50582C8.48223 8.47422 8.27509 8.39161 8.0954 8.26471C7.91571 8.13782 7.76857 7.97024 7.66598 7.77564C7.56339 7.58105 7.50825 7.36496 7.50508 7.145C7.48753 6.6825 7.50508 6.21737 7.50508 5.68378C6.67223 5.72415 5.86483 5.67588 5.09253 5.82069C3.84017 6.05764 3.00908 7.14851 2.93799 8.4623C2.93272 8.55533 2.9336 8.64923 2.9336 8.74314C2.9336 15.8904 2.9336 23.038 2.9336 30.1858C2.9336 31.3996 3.40663 32.357 4.52559 32.8819C4.97326 33.0789 5.45734 33.1796 5.94644 33.1776C9.39809 33.2022 12.8497 33.1934 16.3023 33.1881C16.7551 33.1881 17.1614 33.2856 17.4862 33.6147C17.6423 33.7737 17.758 33.9679 17.8236 34.1809C17.8892 34.3939 17.9029 34.6195 17.8633 34.8389C17.8238 35.0582 17.7322 35.2649 17.5964 35.4416C17.4605 35.6182 17.2843 35.7598 17.0825 35.8543C16.978 35.9043 16.871 35.9473 16.7656 35.9939H5.11008C5.06066 35.9668 5.00823 35.9455 4.95386 35.9307C2.97924 35.6139 1.53995 34.5563 0.67814 32.7634C0.414856 32.2184 0.305155 31.6014 0.125244 31.0178V7.89273C0.153703 7.8313 0.176044 7.76722 0.191943 7.70141C0.528946 5.46964 2.1341 3.63368 4.33076 3.12905C5.18029 2.93335 6.09213 2.97898 6.975 2.9193C7.14438 2.90789 7.31464 2.9193 7.50157 2.9193C7.50157 2.4217 7.4963 1.9785 7.50157 1.53531C7.50771 1.01927 7.72536 0.605918 8.16417 0.331226C8.37309 0.199747 8.61317 0.126082 8.85988 0.117754C9.10659 0.109426 9.35109 0.166733 9.5684 0.283824C9.78571 0.400914 9.96805 0.57359 10.0968 0.784212C10.2255 0.994835 10.296 1.23585 10.3012 1.48265C10.3213 1.95481 10.3012 2.4296 10.3012 2.9H16.6252C16.6252 2.41906 16.6103 1.95393 16.6252 1.49055C16.6288 1.27082 16.6842 1.05504 16.787 0.860784C16.8898 0.66653 17.037 0.499293 17.2166 0.372694C17.3962 0.246096 17.6032 0.163715 17.8207 0.13226C18.0382 0.100806 18.2601 0.121167 18.4682 0.191686C19.0343 0.378617 19.4073 0.893775 19.4213 1.52566C19.4318 1.9864 19.4213 2.44803 19.4213 2.89649H25.8217C25.8217 2.46997 25.8217 2.06363 25.8217 1.6573C25.8279 0.743703 26.4071 0.116211 27.2338 0.116211C28.0605 0.116211 28.6257 0.751602 28.6301 1.67309C28.6301 2.07767 28.6301 2.48313 28.6301 2.92106C29.3208 2.92106 29.9755 2.89122 30.6258 2.92632C32.8444 3.04743 34.4873 4.10232 35.4869 6.07695C35.7703 6.63774 35.8818 7.28454 36.0722 7.89185V16.7908Z" fill="#1FB3A5"/>
<path d="M26.8749 35.9938C26.0631 35.7902 25.2241 35.6595 24.443 35.3716C20.8202 34.0394 18.52 30.0103 19.1984 26.2164C19.7987 22.856 21.7215 20.533 24.9573 19.4807C28.2703 18.403 31.2384 19.2086 33.7045 21.6747C35.0437 23.0122 35.7826 24.6683 36.0099 26.549C36.0256 26.6396 36.0464 26.7293 36.0723 26.8175V28.2217C36.0486 28.334 36.0205 28.4464 36.0029 28.5596C35.4764 31.9103 33.6465 34.2342 30.481 35.4638C29.7789 35.7349 29.0145 35.8262 28.2791 36L26.8749 35.9938ZM27.5594 33.1899C29.0668 33.1913 30.5134 32.5954 31.5826 31.5327C32.6517 30.47 33.2562 29.027 33.2639 27.5196C33.2639 24.4094 30.7285 21.8599 27.6094 21.8397C26.1027 21.8346 24.6552 22.4264 23.5837 23.4857C22.5122 24.5451 21.9039 25.9857 21.8918 27.4924C21.8769 30.6132 24.4325 33.1802 27.5594 33.1899Z" fill="#1FB3A5"/>
<path d="M8.90133 16.2292C8.6251 16.2281 8.35536 16.1453 8.12612 15.9912C7.89688 15.8371 7.7184 15.6186 7.61317 15.3632C7.50794 15.1078 7.48068 14.8269 7.53483 14.556C7.58897 14.2852 7.7221 14.0364 7.91742 13.8411C8.11275 13.6457 8.36152 13.5126 8.6324 13.4585C8.90327 13.4043 9.18411 13.4316 9.43951 13.5368C9.69491 13.642 9.91344 13.8205 10.0676 14.0498C10.2217 14.279 10.3045 14.5487 10.3055 14.825C10.3055 15.1974 10.1576 15.5545 9.89423 15.8179C9.6309 16.0812 9.27374 16.2292 8.90133 16.2292Z" fill="#1FB3A5"/>
<path d="M15.0096 16.2292C14.7334 16.2281 14.4636 16.1453 14.2344 15.9912C14.0052 15.8371 13.8267 15.6186 13.7214 15.3632C13.6162 15.1078 13.589 14.8269 13.6431 14.556C13.6973 14.2852 13.8304 14.0364 14.0257 13.8411C14.221 13.6457 14.4698 13.5126 14.7407 13.4585C15.0115 13.4043 15.2924 13.4316 15.5478 13.5368C15.8032 13.642 16.0217 13.8205 16.1758 14.0498C16.3299 14.279 16.4127 14.5487 16.4138 14.825C16.4138 15.1974 16.2658 15.5545 16.0025 15.8179C15.7392 16.0812 15.382 16.2292 15.0096 16.2292Z" fill="#1FB3A5"/>
<path d="M21.1248 16.2292C20.8486 16.23 20.5783 16.1491 20.3481 15.9966C20.1178 15.8441 19.9378 15.6268 19.8308 15.3722C19.7238 15.1176 19.6946 14.837 19.7468 14.5658C19.799 14.2946 19.9303 14.0449 20.1242 13.8482C20.3181 13.6515 20.5659 13.5166 20.8363 13.4605C21.1067 13.4044 21.3877 13.4296 21.6438 13.5329C21.9 13.6363 22.1198 13.8131 22.2756 14.0412C22.4314 14.2692 22.5162 14.5383 22.5193 14.8144C22.5207 14.9989 22.4857 15.1819 22.4164 15.3528C22.347 15.5238 22.2447 15.6794 22.1152 15.8108C21.9857 15.9421 21.8315 16.0467 21.6616 16.1185C21.4917 16.1903 21.3092 16.2279 21.1248 16.2292Z" fill="#1FB3A5"/>
<path d="M28.6275 14.8337C28.6275 15.1115 28.5451 15.3829 28.3908 15.6139C28.2365 15.8448 28.0172 16.0248 27.7606 16.131C27.504 16.2373 27.2217 16.2651 26.9493 16.2109C26.6769 16.1568 26.4267 16.023 26.2304 15.8266C26.034 15.6303 25.9003 15.3801 25.8461 15.1077C25.7919 14.8353 25.8197 14.553 25.926 14.2964C26.0323 14.0398 26.2122 13.8205 26.4432 13.6662C26.6741 13.5119 26.9456 13.4296 27.2233 13.4296C27.5957 13.4296 27.9528 13.5775 28.2162 13.8408C28.4795 14.1042 28.6275 14.4613 28.6275 14.8337Z" fill="#1FB3A5"/>
<path d="M8.88206 22.3259C8.60591 22.3216 8.33723 22.2356 8.10986 22.0788C7.8825 21.922 7.70664 21.7014 7.60443 21.4448C7.50223 21.1883 7.47827 20.9072 7.53555 20.637C7.59284 20.3668 7.72882 20.1196 7.92636 19.9266C8.12389 19.7336 8.37415 19.6034 8.64557 19.5523C8.917 19.5013 9.19746 19.5318 9.45161 19.6399C9.70576 19.748 9.92222 19.9289 10.0737 20.1598C10.2252 20.3908 10.305 20.6614 10.3029 20.9375C10.3009 21.122 10.2625 21.3043 10.1899 21.4739C10.1174 21.6435 10.0121 21.7972 9.88019 21.9261C9.74823 22.0551 9.59217 22.1568 9.4209 22.2254C9.24964 22.2939 9.06654 22.3281 8.88206 22.3259Z" fill="#1FB3A5"/>
<path d="M15.021 22.326C14.7449 22.3271 14.4747 22.2466 14.2443 22.0945C14.0139 21.9424 13.8336 21.7255 13.7263 21.4712C13.6189 21.2169 13.5891 20.9364 13.6408 20.6653C13.6925 20.3941 13.8232 20.1442 14.0166 19.9472C14.21 19.7501 14.4573 19.6147 14.7275 19.558C14.9977 19.5013 15.2786 19.5257 15.5349 19.6283C15.7912 19.731 16.0114 19.9071 16.1678 20.1346C16.3242 20.3621 16.4098 20.6308 16.4138 20.9069C16.4157 21.0915 16.3812 21.2748 16.3123 21.4462C16.2433 21.6175 16.1412 21.7736 16.0118 21.9054C15.8824 22.0372 15.7283 22.1422 15.5583 22.2144C15.3883 22.2865 15.2057 22.3245 15.021 22.326Z" fill="#1FB3A5"/>
<path d="M8.89345 25.6249C9.16964 25.6239 9.43995 25.7046 9.67031 25.857C9.90067 26.0093 10.0808 26.2265 10.1879 26.481C10.2951 26.7356 10.3245 27.0162 10.2725 27.2874C10.2204 27.5586 10.0893 27.8084 9.89549 28.0052C9.70173 28.202 9.45404 28.3371 9.18365 28.3934C8.91325 28.4496 8.63225 28.4246 8.37606 28.3214C8.11986 28.2183 7.89994 28.0416 7.744 27.8136C7.58807 27.5857 7.5031 27.3166 7.4998 27.0405C7.4983 26.856 7.53316 26.673 7.6024 26.502C7.67163 26.331 7.77388 26.1754 7.90331 26.0439C8.03273 25.9124 8.18679 25.8078 8.35669 25.7359C8.52658 25.664 8.70897 25.6263 8.89345 25.6249Z" fill="#1FB3A5"/>
<path d="M15.0174 28.4227C14.7413 28.4232 14.4713 28.342 14.2413 28.1893C14.0112 28.0367 13.8315 27.8193 13.7248 27.5647C13.618 27.3101 13.589 27.0296 13.6413 26.7586C13.6937 26.4875 13.8251 26.238 14.0189 26.0414C14.2128 25.8449 14.4605 25.7101 14.7308 25.654C15.0011 25.598 15.282 25.6231 15.5381 25.7264C15.7941 25.8296 16.0139 26.0063 16.1697 26.2342C16.3255 26.4621 16.4104 26.7311 16.4137 27.0071C16.4152 27.1918 16.3802 27.375 16.3108 27.5462C16.2415 27.7173 16.139 27.8731 16.0093 28.0046C15.8796 28.1361 15.7252 28.2407 15.555 28.3125C15.3848 28.3842 15.2021 28.4217 15.0174 28.4227Z" fill="#1FB3A5"/>
<path d="M28.9793 26.1146C29.2215 26.1146 29.4295 26.1076 29.6358 26.1146C30.4204 26.1479 31.0119 26.7482 31.0145 27.5073C31.0185 27.8748 30.8768 28.2288 30.6203 28.4919C30.3639 28.7551 30.0137 28.906 29.6463 28.9115C28.9442 28.9314 28.2421 28.9314 27.54 28.9115C27.1785 28.9106 26.832 28.7665 26.5764 28.5107C26.3208 28.255 26.1769 27.9084 26.1762 27.5468C26.1569 26.5674 26.1569 25.588 26.1762 24.6086C26.187 24.2439 26.3399 23.8979 26.6023 23.6444C26.8647 23.3909 27.2158 23.2501 27.5807 23.2519C27.9455 23.2537 28.2952 23.3981 28.555 23.6542C28.8149 23.9103 28.9643 24.2579 28.9714 24.6226C28.9916 25.1062 28.9793 25.5933 28.9793 26.1146Z" fill="#1FB3A5"/>
</svg>
