<svg width="36" height="35" viewBox="0 0 36 35" fill="none" xmlns="http://www.w3.org/2000/svg">
<path d="M0 13.5188C0.158827 13.5321 0.318416 13.5338 0.477485 13.5238C1.4275 13.4007 2.2608 13.6575 3.03539 14.2128C3.48741 14.5361 3.99036 14.7886 4.47775 15.0616C4.58255 15.1229 4.70467 15.1478 4.82507 15.1324C5.22545 15.0482 5.62159 14.9414 6.01702 14.8339C6.26177 14.7674 6.30351 14.5912 6.09837 14.4307C4.90006 13.4941 4.47138 12.2413 4.50746 10.76C4.52726 9.885 4.55344 9.0234 5.00899 8.2474C5.76307 6.96067 6.88356 6.26672 8.38463 6.20306C8.42991 6.20306 8.47589 6.20306 8.52116 6.19811C8.5438 6.19811 8.56573 6.18891 8.64849 6.17123C8.48084 5.77226 8.30894 5.38462 8.15898 4.98848C8.1222 4.89086 8.10876 4.71967 8.16535 4.66167C9.11253 3.69184 10.0753 2.73546 11.0402 1.76563C11.5749 2.11296 12.0942 2.44119 12.6021 2.78568C12.7549 2.88896 12.8673 2.88047 13.0322 2.80549C13.5698 2.56144 14.1145 2.32871 14.669 2.12569C14.8728 2.05071 14.952 1.94955 14.9895 1.74795C15.0998 1.16789 15.2321 0.592789 15.3587 0H19.6667C19.7919 0.582885 19.927 1.16789 20.0381 1.75714C20.077 1.96512 20.1711 2.05354 20.3692 2.1264C20.9124 2.3273 21.4486 2.55083 21.9728 2.79629C22.1673 2.88825 22.2939 2.87552 22.4623 2.76163C22.9518 2.42845 23.4526 2.11225 23.9641 1.77978C24.0348 1.84062 24.1056 1.89296 24.1671 1.95451C25.0386 2.82388 25.9059 3.6975 26.7844 4.56193C26.9259 4.7034 26.9691 4.81234 26.8778 5.00192C26.6967 5.37896 26.5439 5.76943 26.3791 6.15496C26.7788 6.21367 27.1572 6.23277 27.5109 6.32756C28.3366 6.55126 29.0703 7.03069 29.6067 7.6971C30.1431 8.3635 30.4547 9.18266 30.4968 10.0371C30.5428 11.0027 30.5873 11.9767 30.1572 12.8921C29.8964 13.4516 29.5167 13.9474 29.0445 14.3451C28.9434 14.4307 28.8889 14.5707 28.8125 14.686C28.9321 14.7511 29.0445 14.8409 29.1719 14.8777C30.0344 15.1281 30.8986 15.3705 31.7644 15.6049C31.8607 15.623 31.9602 15.6085 32.0474 15.5639C32.3445 15.4224 32.6522 15.2866 32.9217 15.1005C33.5527 14.6634 34.2445 14.5962 35.0304 14.7101V15.0065C35.0304 17.5368 35.0255 20.0671 35.0375 22.5974C35.0375 22.8599 34.942 22.9716 34.7248 23.0799C31.5338 24.6658 28.3492 26.2631 25.1574 27.8476C24.9353 27.958 24.8469 28.0832 24.8342 28.3329C24.8104 28.7054 24.6618 29.0591 24.4123 29.3367C24.1628 29.6144 23.8269 29.7998 23.459 29.863C23.2468 29.899 23.1555 29.9634 23.1223 30.1919C23.0176 30.9092 22.4418 31.4489 21.7125 31.5855C21.6551 31.6006 21.6019 31.6287 21.5571 31.6676C21.5122 31.7065 21.4768 31.7551 21.4536 31.8097C21.2265 32.7293 20.7462 33.1785 19.8195 33.3023C19.7595 33.5418 19.6865 33.778 19.6009 34.0097C19.3753 34.5388 18.9148 34.8019 18.4062 35H17.65C17.2835 34.78 16.9001 34.5834 16.5571 34.3308C16.3767 34.1985 16.2656 34.1617 16.0534 34.2601C15.8136 34.3747 15.5506 34.4324 15.2849 34.4285C15.0192 34.4246 14.7579 34.3594 14.5216 34.2378C14.2853 34.1162 14.0803 33.9416 13.9227 33.7277C13.765 33.5137 13.659 33.2662 13.6129 33.0045C13.574 32.8 13.4934 32.7215 13.2953 32.6883C12.8482 32.6175 12.4634 32.3989 12.2342 32.0141C12.063 31.7312 12.0581 31.3138 11.8395 31.0988C11.6103 30.8738 11.1887 30.8597 10.898 30.6786C10.4254 30.3843 10.2337 29.8927 10.1672 29.3565C9.21864 29.215 8.64425 28.7071 8.48862 27.7599C8.47313 27.6855 8.42988 27.6197 8.36766 27.576C7.8541 27.2605 7.33558 26.9535 6.81778 26.6437C6.58858 27.0851 6.58646 27.0589 6.08139 27.0921C5.53458 27.1289 5.05497 26.9195 4.56122 26.7547C3.04034 26.2475 1.51946 25.7311 0.0035366 25.2176L0 13.5188ZM33.8937 15.8766C33.7196 15.9643 33.6001 16.0223 33.4827 16.0845C30.2598 17.7822 27.0379 19.48 23.8169 21.1777C23.4371 21.38 23.0657 21.4868 22.6469 21.4232C22.4223 21.3898 22.2 21.3426 21.9813 21.2817C21.0065 21.0072 20.0331 20.7283 19.0612 20.4448C18.3885 20.2482 17.7306 20.2694 17.0982 20.5814C16.0782 21.085 15.0609 21.5951 14.0465 22.1114C13.5797 22.3498 13.4233 22.8648 13.6624 23.2942C13.8888 23.6995 14.35 23.7957 14.8141 23.5234C15.4224 23.1654 16.0251 22.7983 16.6313 22.4361C17.744 21.7726 18.6976 21.861 19.6611 22.7247C21.1546 24.0641 22.6446 25.4067 24.131 26.7526C24.3213 26.9259 24.4557 26.9443 24.687 26.8276C27.6453 25.3378 30.6078 23.8568 33.5746 22.3845C33.8109 22.2678 33.9028 22.1404 33.9007 21.8702C33.8873 20.0013 33.8937 18.1324 33.8937 16.2635V15.8766ZM16.2649 19.7297C15.196 19.3215 14.1668 19.0499 13.1142 19.2267C11.6676 19.4694 10.2394 19.8195 8.80482 20.1336C8.75424 20.148 8.70743 20.1733 8.66771 20.2078C8.62798 20.2423 8.59631 20.285 8.57492 20.3331C8.09201 21.9931 7.61759 23.6559 7.15166 25.3216C7.14533 25.3666 7.14993 25.4124 7.16508 25.4553C7.18022 25.4981 7.20547 25.5367 7.23867 25.5677C7.75648 25.8945 8.28489 26.2044 8.85646 26.5482C9.2717 26.1145 9.65015 25.6533 10.0958 25.2692C11.1279 24.3793 12.665 24.9212 12.9388 26.2546C12.9819 26.4668 13.0661 26.5503 13.2826 26.5849C13.5099 26.6167 13.7268 26.7002 13.9168 26.8289C14.1067 26.9577 14.2646 27.1283 14.3783 27.3277C14.5339 27.5958 14.5318 27.9863 14.732 28.1865C14.9322 28.3867 15.3312 28.381 15.5964 28.5402C16.0916 28.8415 16.3215 29.3367 16.3816 29.9111C16.9185 29.974 17.326 30.2181 17.6938 30.593C18.1867 31.0945 18.7092 31.566 19.2586 32.0049C19.608 32.2836 20.0225 32.2058 20.2277 31.9101C20.4208 31.6314 20.3416 31.3174 19.9914 31.0231C19.3724 30.5017 18.7485 29.9868 18.1267 29.4668C17.807 29.1994 17.4901 28.9299 17.1541 28.6491L17.8777 27.7889C18.8348 28.5861 19.7622 29.3593 20.6917 30.1304C20.8093 30.2378 20.9386 30.3315 21.0772 30.4098C21.2202 30.4824 21.3843 30.5014 21.5401 30.4634C21.6958 30.4254 21.8327 30.3328 21.9261 30.2025C22.0931 29.9457 22.04 29.6564 21.7783 29.4053C21.7287 29.3586 21.6729 29.3183 21.6205 29.2744L18.8447 26.957L19.5663 26.0947C19.7353 26.2362 19.8839 26.3543 20.0303 26.4767C20.8622 27.17 21.6943 27.8627 22.5267 28.555C22.8804 28.85 23.326 28.8514 23.5687 28.5699C23.8113 28.2883 23.7547 27.9332 23.377 27.5923C21.8863 26.2501 20.3949 24.9084 18.9027 23.5672C18.3489 23.0685 17.8671 23.019 17.2262 23.3996C16.5854 23.7802 15.9529 24.1586 15.3213 24.5413C15.1079 24.6749 14.8698 24.7638 14.6211 24.8027C14.3725 24.8416 14.1186 24.8297 13.8747 24.7677C13.1192 24.5845 12.5504 23.9577 12.4528 23.2319C12.3326 22.3364 12.6502 21.5901 13.383 21.1926C14.193 20.7533 15.027 20.3585 15.8504 19.944C15.9735 19.8832 16.0888 19.8209 16.2649 19.7297ZM11.8975 18.2583C12.0185 18.2406 12.138 18.2265 12.2562 18.2046C13.3229 18.0114 14.3833 17.9987 15.4394 18.2923C16.7629 18.6594 18.09 19.0145 19.4135 19.3824C20.4222 19.6618 21.4274 19.9539 22.4354 20.2355C22.5784 20.2693 22.7239 20.2917 22.8705 20.3027C23.0883 20.3274 23.1761 20.2319 23.1725 20.007C23.1626 19.3923 23.186 18.7761 23.164 18.1614C23.1315 17.2503 22.6604 16.6816 21.774 16.4531C20.8594 16.2182 19.9447 15.982 19.0237 15.7726C18.7224 15.7018 18.6134 15.5773 18.6396 15.2675C18.663 14.9142 18.663 14.5597 18.6396 14.2064C18.6283 13.9772 18.6934 13.8386 18.9056 13.7176C19.5882 13.33 20.0763 12.7506 20.2326 11.9789C20.4116 11.0925 20.425 10.1878 20.1619 9.30707C19.8323 8.18798 18.7004 7.33771 17.5623 7.32214C16.3123 7.30446 15.1395 8.10027 14.8501 9.30636C14.6903 9.96847 14.7087 10.6808 14.7087 11.3712C14.7037 12.189 15.0072 12.9536 15.6884 13.3795C16.347 13.7912 16.4665 14.2991 16.3823 14.9612C16.3674 15.063 16.3674 15.1664 16.3823 15.2682C16.4361 15.5773 16.3038 15.7039 16.0025 15.7726C15.0708 15.9848 14.1449 16.221 13.2196 16.4609C12.3318 16.6908 11.8211 17.3797 11.8975 18.2583ZM30.5017 16.3731C29.6309 16.156 28.867 15.9487 28.0966 15.7796C27.7917 15.7124 27.646 15.6085 27.6821 15.2682C27.7097 14.9273 27.7097 14.5848 27.6821 14.2439C27.6665 13.9892 27.7401 13.8372 27.9735 13.6999C28.6859 13.2833 29.1711 12.6657 29.2999 11.8445C29.4343 10.9878 29.4591 10.1184 29.1966 9.27382C28.8521 8.16605 27.6821 7.30446 26.5715 7.32285C25.2982 7.34478 24.1876 8.11512 23.8884 9.30353C23.7413 9.88854 23.7547 10.5188 23.7377 11.13C23.7073 12.2745 24.1961 13.151 25.185 13.7346C25.3626 13.8393 25.4439 13.9518 25.434 14.164C25.4086 14.5278 25.4086 14.893 25.434 15.2569C25.4652 15.5879 25.3428 15.7153 25.0266 15.7768C24.525 15.8766 24.0306 16.018 23.4717 16.1595C24.4925 17.1647 24.2647 18.4062 24.298 19.6405L30.5017 16.3731ZM11.4915 16.1425C10.9581 16.0081 10.4346 15.8666 9.90622 15.7478C9.68198 15.6976 9.58012 15.6134 9.59426 15.3637C9.6169 14.9661 9.61053 14.5658 9.59426 14.1682C9.58507 13.956 9.65934 13.84 9.84114 13.7367C10.5146 13.3547 11.0055 12.7959 11.176 12.039C11.3882 11.0975 11.4052 10.1361 11.0897 9.20945C10.7126 8.10593 9.58295 7.30446 8.49216 7.32356C7.20189 7.34619 6.11888 8.11583 5.79702 9.33536C5.6605 9.85246 5.68455 10.4148 5.65767 10.9574C5.59612 12.1925 6.0821 13.1418 7.15661 13.7813C7.20635 13.8196 7.24747 13.8679 7.27733 13.9231C7.30719 13.9783 7.32511 14.0391 7.32992 14.1017C7.34902 14.5453 7.32992 14.9902 7.34124 15.4337C7.34549 15.6162 7.28182 15.6926 7.10073 15.7294C6.77816 15.7959 6.46409 15.8935 6.0729 15.9961C7.02009 16.5486 7.89017 17.065 8.77016 17.563C8.97742 17.6804 9.05311 17.8134 9.03614 18.0468C9.01421 18.3298 9.03119 18.6127 9.03119 18.9169C9.5023 18.8122 9.96352 18.6941 10.4318 18.6113C10.666 18.5696 10.731 18.4804 10.7487 18.2378C10.7719 17.8308 10.8465 17.4284 10.9708 17.0402C11.0777 16.7254 11.3047 16.4566 11.4915 16.1425ZM15.3446 14.7624C15.2173 14.5877 15.1494 14.4427 15.0383 14.35C14.4255 13.85 13.9739 13.1802 13.7402 12.4245C13.4821 11.6004 13.5111 10.7515 13.574 9.91542C13.702 8.22194 14.5849 7.01514 16.1751 6.4365C17.7462 5.86352 19.1963 6.21084 20.3267 7.44452C21.762 9.01492 21.721 10.8753 21.1508 12.7718C20.9506 13.4375 20.4816 13.9546 19.9348 14.391C19.7099 14.5693 19.7007 14.7603 19.9143 14.8155C20.5955 14.9973 21.281 15.1692 21.9657 15.3283C22.0666 15.3391 22.1686 15.327 22.2642 15.293C22.8393 15.1515 23.4137 15.01 23.9853 14.8593C24.0921 14.831 24.2683 14.7454 24.2683 14.6924C24.264 14.5799 24.1784 14.4575 24.0978 14.3635C23.8092 14.0289 23.4427 13.7431 23.2256 13.3689C22.3456 11.8593 22.4276 10.2635 22.8973 8.64778C22.9341 8.51975 22.9716 8.34149 22.9136 8.24316C21.6948 6.18679 19.8719 5.07266 17.4922 5.07903C15.1727 5.08468 13.3781 6.16203 12.1522 8.15403C12.0312 8.34997 12.0326 8.50348 12.1048 8.71994C12.5801 10.1347 12.6162 11.5558 12.034 12.9543C11.7949 13.5316 11.3903 13.9963 10.9022 14.3847C10.6773 14.5629 10.6631 14.7603 10.8718 14.8162C11.5643 15.0015 12.2611 15.1699 12.9572 15.3389C13.0251 15.3438 13.0933 15.3334 13.1567 15.3085C13.8414 15.1373 14.5247 14.9661 15.3446 14.7624ZM23.7073 7.31719C24.1155 7.05687 24.4996 6.81636 24.8766 6.56595C24.9497 6.516 25.0081 6.44736 25.0457 6.36717C25.2183 5.98306 25.3923 5.59895 25.5366 5.20423C25.5519 5.14488 25.5535 5.08282 25.5412 5.02277C25.5289 4.96271 25.5032 4.90624 25.4659 4.85761C24.9877 4.35396 24.4861 3.87152 24.0016 3.37211C23.8742 3.24124 23.778 3.22568 23.6252 3.33108C23.2312 3.6013 22.8316 3.86586 22.4227 4.1092C22.3683 4.13723 22.3084 4.15285 22.2472 4.15493C22.186 4.15701 22.1252 4.1455 22.069 4.12123C21.2283 3.61862 20.3187 3.24161 19.3689 3.00214C19.3058 2.97806 19.2489 2.94014 19.2024 2.89117C19.1559 2.84221 19.1209 2.78344 19.1001 2.71919C18.9827 2.26788 18.8957 1.80878 18.8087 1.3504C18.7754 1.1778 18.704 1.09998 18.5158 1.10281C17.8544 1.11201 17.1937 1.11342 16.5351 1.10281C16.3335 1.09928 16.2522 1.17355 16.2182 1.36525C16.1369 1.801 16.0244 2.2318 15.9515 2.66896C15.9162 2.88118 15.8299 2.97738 15.6191 3.02266C14.6954 3.23067 13.8147 3.59683 13.0159 4.10496C12.8412 4.21531 12.7223 4.20328 12.5596 4.09293C12.1189 3.79229 11.6662 3.51004 11.193 3.20375C10.6157 3.78593 10.0498 4.34617 9.49877 4.91986C9.44571 4.97575 9.45279 5.13208 9.48674 5.22121C9.63176 5.6039 9.79233 5.98094 9.95927 6.35303C10.0006 6.44393 10.0653 6.52227 10.1467 6.5801C10.5188 6.83971 10.8994 7.08588 11.3047 7.35185C12.7626 5.20282 14.8049 3.96985 17.459 3.95145C20.1315 3.93306 22.1942 5.14835 23.7073 7.31719ZM3.5539 25.2303L5.59895 17.0565C5.56953 17.0273 5.53784 17.0006 5.50416 16.9765C4.23653 16.2359 2.97172 15.491 1.69702 14.7631C1.54847 14.6775 1.34332 14.6853 1.13111 14.6422V21.8893C1.13111 22.6406 1.12262 23.3925 1.1396 24.1438C1.1396 24.2577 1.23226 24.438 1.32422 24.4713C2.05071 24.738 2.78568 24.9735 3.5539 25.2303ZM5.78712 25.9716C6.05875 25.0188 6.3219 24.09 6.58717 23.1626C7.00665 21.6976 7.43603 20.234 7.84136 18.7662C7.87956 18.629 7.87178 18.3835 7.78902 18.3241C7.43532 18.0716 7.0406 17.87 6.62254 17.6266L4.62984 25.5882L5.78712 25.9716ZM17.0112 31.6456C16.8747 31.4687 16.7721 31.2558 16.6037 31.1363C16.3668 30.9679 16.0944 31.0309 15.8843 31.2275C15.5441 31.5473 15.2074 31.8719 14.8905 32.2143C14.6301 32.4973 14.6415 32.8637 14.8806 33.1063C15.1196 33.349 15.5009 33.3617 15.8002 33.0851C16.1248 32.7831 16.4368 32.4676 16.7389 32.14C16.8443 32.0205 16.898 31.8507 17.0091 31.6456H17.0112ZM11.9343 26.5446C11.7801 26.3607 11.6683 26.1598 11.4993 26.0431C11.2686 25.8839 11.0041 25.9525 10.8074 26.1365C10.482 26.4378 10.1708 26.7533 9.85953 27.0716C9.54828 27.39 9.53484 27.7472 9.7888 28.0132C10.0548 28.2961 10.4205 28.2827 10.7544 27.9651C11.0515 27.6821 11.3472 27.3991 11.6209 27.0928C11.7391 26.9577 11.8055 26.7703 11.9343 26.5446ZM13.6815 31.5925C13.7282 31.5777 13.864 31.5741 13.9369 31.5048C14.3543 31.1051 14.7815 30.7104 15.1557 30.2718C15.3524 30.0412 15.2689 29.7434 15.0461 29.5326C14.8233 29.3218 14.5262 29.2659 14.2998 29.4619C13.8646 29.8268 13.4641 30.2313 13.1036 30.6701C12.8072 31.0464 13.1361 31.584 13.6815 31.5925ZM13.0279 27.6276C12.8362 27.6807 12.711 27.6771 12.6466 27.7387C12.2222 28.1447 11.7808 28.543 11.3967 28.9886C11.2014 29.2157 11.2863 29.5114 11.5042 29.7293C11.7221 29.9471 12.056 29.9861 12.2823 29.7837C12.6916 29.424 13.0742 29.0348 13.4269 28.6194C13.533 28.4906 13.5386 28.1893 13.4644 28.0231C13.3901 27.8568 13.1588 27.7387 13.0279 27.6276ZM17.1654 33.3575C17.4682 33.6489 17.7547 33.9941 18.2208 33.813C18.3137 33.7693 18.3961 33.7061 18.4623 33.6278C18.5286 33.5494 18.5772 33.4577 18.6049 33.3589C18.7011 32.8503 18.2208 32.7074 17.9591 32.4272L17.1654 33.3575Z" fill="#1FB3A5"/>
</svg>
