<svg width="20" height="20" viewBox="0 0 20 20" fill="none" xmlns="http://www.w3.org/2000/svg">
<path d="M10.238 0C13.3824 0 16.2938 1.395 18.2244 3.744C18.2794 3.81059 18.3205 3.88756 18.3451 3.97033C18.3698 4.05311 18.3775 4.14 18.3679 4.22583C18.3583 4.31167 18.3315 4.39469 18.2892 4.46997C18.2469 4.54524 18.1898 4.61123 18.1214 4.664C17.9823 4.7731 17.8061 4.82368 17.6303 4.80501C17.4544 4.78634 17.2928 4.69989 17.1796 4.564C16.3355 3.54117 15.2748 2.71854 14.0742 2.15547C12.8736 1.59241 11.563 1.30295 10.237 1.308C5.32296 1.308 1.33874 5.2 1.33874 10C1.33874 14.8 5.32296 18.692 10.237 18.692C11.5821 18.6973 12.9112 18.3995 14.1255 17.8208C15.3399 17.2421 16.4083 16.3972 17.2516 15.349C17.3629 15.2117 17.5232 15.1231 17.6986 15.102C17.8741 15.0809 18.0508 15.129 18.1914 15.236C18.2604 15.2879 18.3182 15.3531 18.3615 15.4277C18.4048 15.5024 18.4326 15.585 18.4433 15.6706C18.454 15.7563 18.4474 15.8432 18.4239 15.9262C18.4004 16.0093 18.3604 16.0867 18.3064 16.154C16.3788 18.564 13.4284 20 10.238 20C4.5821 20 0 15.523 0 10C0 4.477 4.5831 0 10.238 0ZM17.0946 7.16L19.8001 9.867C20.0621 10.128 20.0671 10.547 19.8121 10.803L17.1686 13.446C17.1067 13.507 17.0332 13.5552 16.9526 13.5877C16.8719 13.6203 16.7856 13.6366 16.6986 13.6356C16.6117 13.6347 16.5257 13.6166 16.4458 13.5823C16.3659 13.5481 16.2935 13.4983 16.2328 13.436C16.1703 13.3754 16.1203 13.303 16.0859 13.223C16.0515 13.1429 16.0332 13.0569 16.0322 12.9698C16.0312 12.8827 16.0474 12.7962 16.08 12.7154C16.1125 12.6346 16.1607 12.5611 16.2218 12.499L17.7685 10.952H7.46054C7.37354 10.9533 7.28715 10.9374 7.20633 10.9052C7.1255 10.873 7.05184 10.8252 6.98958 10.7644C6.92733 10.7036 6.8777 10.6311 6.84356 10.5511C6.80942 10.471 6.79145 10.385 6.79067 10.298C6.79067 9.936 7.09061 9.643 7.46054 9.643H17.7275L16.1698 8.085C16.1074 8.02439 16.0576 7.95205 16.0233 7.87212C15.9889 7.7922 15.9707 7.70627 15.9697 7.61929C15.9687 7.5323 15.9849 7.44597 16.0173 7.36526C16.0498 7.28455 16.0979 7.21106 16.1588 7.149C16.2209 7.08804 16.2944 7.03994 16.375 7.00748C16.4557 6.97502 16.5421 6.95884 16.629 6.95986C16.716 6.96088 16.8019 6.97909 16.8818 7.01344C16.9617 7.04778 17.034 7.09759 17.0946 7.16Z" fill="#2B2B2B"/>
</svg>
