<svg width="37" height="25" viewBox="0 0 37 25" fill="none" xmlns="http://www.w3.org/2000/svg">
<path d="M35.1979 10.5787C34.6253 9.8185 32.4978 9.29503 31.5977 7.92698C30.6977 6.55893 29.9609 3.59625 27.6702 2.4579C25.3794 1.31955 21.001 1 18.5009 1C16.0007 1 11.6254 1.31252 9.33155 2.45556C7.03767 3.59859 6.30403 6.55893 5.40397 7.92463C4.50392 9.29034 2.37645 9.8185 1.80376 10.5787C1.23107 11.3389 0.827919 16.1447 1.07325 18.501C1.31857 20.8574 1.77641 22.2513 1.77641 22.2513H8.49557C9.59563 22.2513 9.95347 21.838 12.2036 21.6262C14.6725 21.3918 17.0945 21.3137 18.5009 21.3137C19.9072 21.3137 22.4073 21.3918 24.8747 21.6262C27.1248 21.8395 27.4944 22.2513 28.5827 22.2513H35.2237C35.2237 22.2513 35.6816 20.8574 35.9269 18.501C36.1722 16.1447 35.7675 11.3389 35.1979 10.5787ZM29.7515 22.2513H34.1268V23.5013H29.7515V22.2513ZM2.87492 22.2513H7.25018V23.5013H2.87492V22.2513Z" stroke="#1FB3A5" stroke-width="1.5" stroke-linecap="round" stroke-linejoin="round"/>
<path d="M26.9756 16.404C26.5139 15.8704 25.0091 15.4251 23.0168 15.1266C21.0245 14.8281 20.2979 14.7508 18.5165 14.7508C16.7352 14.7508 15.925 14.8789 14.0155 15.1266C12.106 15.3743 10.6723 15.8149 10.0574 16.404C9.13472 17.2978 10.4864 18.301 11.5474 18.4229C12.5756 18.5401 14.6311 18.4971 18.5251 18.4971C22.4191 18.4971 24.4747 18.5401 25.5029 18.4229C26.5623 18.294 27.8171 17.3603 26.9756 16.404ZM32.2181 11.2389C32.2138 11.1768 32.1866 11.1186 32.1419 11.0753C32.0972 11.0321 32.0381 11.0068 31.9759 11.0045C31.0532 10.9717 30.1164 11.0373 28.4546 11.5272C27.6068 11.7747 26.8107 12.1733 26.1045 12.7038C25.9264 12.8429 25.9896 13.2187 26.2131 13.2585C27.5828 13.4192 28.9608 13.5001 30.3399 13.5007C31.1673 13.5007 32.0213 13.2663 32.1799 12.5288C32.2607 12.1035 32.2737 11.6682 32.2181 11.2389ZM4.78368 11.2389C4.78807 11.1768 4.81522 11.1186 4.85992 11.0753C4.90462 11.0321 4.96372 11.0068 5.02588 11.0045C5.9486 10.9717 6.88537 11.0373 8.54719 11.5272C9.39501 11.7747 10.1912 12.1733 10.8973 12.7038C11.0755 12.8429 11.0122 13.2187 10.7887 13.2585C9.41899 13.4192 8.04106 13.5001 6.66192 13.5007C5.83453 13.5007 4.98057 13.2663 4.82197 12.5288C4.74109 12.1035 4.72817 11.6682 4.78368 11.2389Z" fill="#1FB3A5"/>
<path d="M32.2517 7.25037H33.5018M3.5 7.25037H4.75007M4.59382 8.73483C4.59382 8.73483 8.21513 7.79727 18.5009 7.79727C28.7867 7.79727 32.408 8.73483 32.408 8.73483" stroke="#1FB3A5" stroke-width="1.5" stroke-linecap="round" stroke-linejoin="round"/>
</svg>
