<svg width="19" height="21" viewBox="0 0 19 21" fill="none" xmlns="http://www.w3.org/2000/svg">
<path d="M17.8509 0C18.1949 0.209838 18.2346 0.438304 17.979 0.767032C17.3761 1.53406 16.7754 2.30548 16.1661 3.07087C16.0867 3.17058 16.0931 3.23523 16.1376 3.35412C16.2266 3.60228 16.296 3.85752 16.345 4.11732C16.3789 4.28168 16.4276 4.41317 16.5647 4.52658C17.1422 5.00488 17.7053 5.50071 18.2775 5.98559C18.7539 6.38773 18.9958 6.90877 18.9968 7.53773C19.0011 11.4134 19.0011 15.289 18.9968 19.1643C18.9968 20.0809 18.4056 20.8277 17.5963 20.9756C17.4854 20.9923 17.3733 20.9995 17.2613 20.997C14.3162 20.997 11.3712 20.9979 8.42623 20.9997C7.98651 21.0082 7.56092 20.8388 7.24008 20.5274C5.05726 18.4811 2.88767 16.4183 0.676793 14.4043C-0.303995 13.5096 -0.0875119 12.318 0.49842 11.6068C2.82345 8.79037 5.137 5.9644 7.43909 3.12894C7.91546 2.54216 8.48551 2.2611 9.23606 2.29562C11.1024 2.38163 12.9708 2.43368 14.8376 2.506C15.0023 2.51282 15.1648 2.54743 15.3187 2.60846C15.4442 2.65831 15.5019 2.62763 15.5786 2.52901C16.1492 1.79266 16.7233 1.06051 17.301 0.332563C17.3952 0.213125 17.5084 0.110672 17.6127 0H17.8509ZM14.9371 3.33878C14.8503 3.32947 14.8064 3.32234 14.7624 3.3207C12.9221 3.25386 11.0807 3.19962 9.24082 3.11415C8.72052 3.0895 8.35107 3.27468 8.02344 3.68121C6.8828 5.09912 5.72311 6.50005 4.57083 7.9081C3.41061 9.32601 2.25022 10.7443 1.08964 12.1629C0.631803 12.7212 0.668854 13.2751 1.18756 13.7589C2.37848 14.8718 3.5687 15.9859 4.7582 17.101C5.76775 18.0452 6.77659 18.9892 7.78472 19.933C8.02608 20.1598 8.29391 20.2343 8.60672 20.1368C8.88037 20.0513 9.06245 19.8475 9.24188 19.6316C10.3291 18.3014 11.4175 16.972 12.5071 15.6436C13.7319 14.1461 14.9574 12.6505 16.1836 11.157C16.4382 10.8475 16.5584 10.5045 16.4948 10.0985C16.2058 8.25874 15.9168 6.41933 15.6278 4.58028C15.595 4.37153 15.5575 4.16444 15.5151 3.91351L13.6393 6.29678C13.8071 6.4491 13.9664 6.59154 14.1236 6.73509C14.3411 6.93726 14.3724 7.17339 14.2083 7.36186C14.0442 7.55033 13.8219 7.54705 13.6107 7.35858C13.0906 6.89543 12.5717 6.43065 12.054 5.96422C11.8354 5.76698 11.801 5.52592 11.9566 5.33854C12.1123 5.15117 12.3526 5.15226 12.5701 5.34347C12.7236 5.4788 12.8766 5.61741 13.038 5.75986L14.9371 3.33878ZM16.6092 5.61139C16.6025 5.63556 16.5981 5.66032 16.5959 5.68535C16.7981 6.97177 16.9807 8.26039 17.2115 9.54352C17.3608 10.3703 17.2814 11.0935 16.7277 11.7619C14.6238 14.304 12.5399 16.8643 10.4487 19.418C10.2507 19.6596 10.0543 19.9028 9.84104 20.1653C9.90032 20.1718 9.9252 20.1768 9.9469 20.1768C12.417 20.1768 14.886 20.1768 17.3539 20.1768C17.4733 20.1769 17.5911 20.1475 17.6974 20.091C17.8036 20.0345 17.8953 19.9525 17.9647 19.8519C18.1312 19.627 18.2172 19.3494 18.2082 19.0662C18.2061 17.5968 18.2061 16.1276 18.2082 14.6585C18.2082 12.3209 18.2082 9.98329 18.2082 7.64567C18.2082 7.33611 18.1727 7.02218 17.952 6.8085C17.5248 6.39705 17.0675 6.01737 16.6092 5.61139Z" fill="#1FB3A5"/>
</svg>
