<svg width="22" height="22" viewBox="0 0 22 22" fill="none" xmlns="http://www.w3.org/2000/svg">
<path d="M20.7101 7.70999C21.9601 6.45999 21.3901 4.99999 20.7101 4.28999L17.7101 1.28999C16.4501 0.0399901 15.0001 0.60999 14.2901 1.28999L12.5901 2.99999H10.0001C8.10005 2.99999 7.00005 3.99999 6.44005 5.14999L2.00005 9.58999V13.59L1.29005 14.29C0.0400511 15.55 0.610051 17 1.29005 17.71L4.29005 20.71C4.83005 21.25 5.41005 21.45 5.96005 21.45C6.67005 21.45 7.32005 21.1 7.71005 20.71L10.4101 18H14.0001C15.7001 18 16.5601 16.94 16.8701 15.9C18.0001 15.6 18.6201 14.74 18.8701 13.9C20.4201 13.5 21.0001 12.03 21.0001 11V7.99999H20.4101L20.7101 7.70999ZM19.0001 11C19.0001 11.45 18.8101 12 18.0001 12H17.0001V13C17.0001 13.45 16.8101 14 16.0001 14H15.0001V15C15.0001 15.45 14.8101 16 14.0001 16H9.59005L6.31005 19.28C6.00005 19.57 5.82005 19.4 5.71005 19.29L2.72005 16.31C2.43005 16 2.60005 15.82 2.71005 15.71L4.00005 14.41V10.41L6.00005 8.40999V9.99999C6.00005 11.21 6.80005 13 9.00005 13C11.2001 13 12.0001 11.21 12.0001 9.99999H19.0001V11ZM19.2901 6.28999L17.5901 7.99999H10.0001V9.99999C10.0001 10.45 9.81005 11 9.00005 11C8.19005 11 8.00005 10.45 8.00005 9.99999V6.99999C8.00005 6.53999 8.17005 4.99999 10.0001 4.99999H13.4101L15.6901 2.71999C16.0001 2.42999 16.1801 2.59999 16.2901 2.70999L19.2801 5.68999C19.5701 5.99999 19.4001 6.17999 19.2901 6.28999Z" fill="#1FB3A5"/>
</svg>
