<svg width="22" height="22" viewBox="0 0 22 22" fill="none" xmlns="http://www.w3.org/2000/svg">
<path d="M11 6V8M10.998 1C7.98997 1 6.03997 3.019 3.73397 3.755C2.79597 4.055 2.32697 4.204 2.13697 4.415C1.94697 4.625 1.89197 4.934 1.78097 5.55C0.59097 12.146 3.19097 18.244 9.39097 20.618C10.056 20.873 10.389 21 11.001 21C11.613 21 11.947 20.872 12.613 20.617C18.812 18.244 21.409 12.146 20.219 5.55C20.108 4.934 20.052 4.625 19.862 4.414C19.672 4.203 19.204 4.054 18.266 3.755C15.959 3.019 14.006 1 10.998 1Z" stroke="#1FB3A5" stroke-width="1.5" stroke-linecap="round" stroke-linejoin="round"/>
</svg>
