<svg width="35" height="35" viewBox="0 0 35 35" fill="none" xmlns="http://www.w3.org/2000/svg">
<path d="M8.94808 35C8.74817 34.9617 8.54736 34.9261 8.34837 34.8841C6.35667 34.4688 5.08241 33.2657 4.49458 31.3342C4.4033 31.0476 4.3038 30.9399 3.9898 30.9491C3.04415 30.9746 2.0985 30.96 1.15194 30.9573C0.421709 30.9573 0.00547674 30.5447 0.00273837 29.8145C-0.000912789 28.5718 -0.000912789 27.3295 0.00273837 26.0875C0.00273837 25.3527 0.415319 24.9465 1.1492 24.9465H17.7282C17.7355 24.8014 17.7465 24.68 17.7465 24.5577C17.7465 23.623 17.7802 22.6874 17.7401 21.7545C17.678 20.3461 18.1453 19.2343 19.4306 18.5059C19.1823 17.8743 18.9386 17.2526 18.6939 16.631C17.3613 13.2543 16.0304 9.877 14.7014 6.49908C14.6055 6.25627 14.5061 6.13396 14.2076 6.1084C13.041 5.99704 12.1848 5.39643 11.681 4.3312C11.5897 4.13221 11.4811 4.07014 11.2702 4.07562C10.6915 4.08931 10.1119 4.08018 9.49118 4.08018C9.49118 4.71914 9.49119 5.32705 9.49849 5.93862C9.49849 6.00161 9.58977 6.0801 9.66279 6.12118C9.97953 6.31652 10.1703 6.60313 10.1621 6.96551C10.1466 7.73773 10.1849 8.52729 10.0316 9.27578C9.7705 10.5455 8.93621 11.4017 7.73407 11.8718C7.5223 11.9548 7.42737 12.037 7.43741 12.2779C7.45749 12.801 7.45566 13.3267 7.43741 13.8507C7.42919 14.0917 7.49674 14.2021 7.74137 14.2779C8.62483 14.5504 9.40043 15.0935 9.95879 15.8304C10.5172 16.5672 10.8301 17.4608 10.8535 18.3851C10.8769 19.3093 10.6096 20.2176 10.0892 20.9818C9.56881 21.746 8.82167 22.3276 7.95313 22.6445C5.12349 23.6887 2.05834 21.6021 2.00175 18.5917C1.99079 17.9738 2.39699 17.5064 2.96839 17.4827C3.57083 17.4571 3.99345 17.8633 4.03636 18.5187C4.1039 19.5447 4.58403 20.3078 5.53789 20.6948C6.45068 21.0599 7.30962 20.8992 8.04715 20.2384C8.39507 19.9214 8.64013 19.5076 8.75075 19.0501C8.86138 18.5926 8.8325 18.1125 8.66785 17.6716C8.50691 17.2367 8.22254 16.8582 7.84961 16.5826C7.47669 16.3069 7.03142 16.1461 6.56843 16.1199C5.78161 16.0806 5.40919 15.6936 5.40736 14.9113C5.40736 14.0332 5.40006 13.156 5.40736 12.2779C5.40736 12.0644 5.35077 11.9639 5.14357 11.8845C3.62469 11.304 2.72376 10.0078 2.67904 8.36299C2.66808 7.94128 2.67904 7.51957 2.67904 7.09787C2.67904 6.67616 2.8333 6.34481 3.1975 6.1157C3.23775 6.09092 3.27247 6.05811 3.29948 6.01932C3.32649 5.98053 3.34522 5.93659 3.3545 5.89024C3.36728 5.30058 3.3618 4.71092 3.3618 4.0811H1.28977C1.15332 4.08753 1.01656 4.08295 0.880842 4.0674C0.631153 4.02642 0.405036 3.89564 0.24501 3.69964C0.0849832 3.50364 0.00207195 3.25593 0.0118663 3.00309C0.0280273 2.74466 0.141564 2.50197 0.329587 2.32394C0.51761 2.14591 0.766136 2.04579 1.02506 2.04375C2.06199 2.0328 3.09892 2.04375 4.13585 2.04375C6.5091 2.04375 8.88235 2.04375 11.2483 2.04923C11.4701 2.04923 11.5824 1.99172 11.6855 1.78178C12.246 0.633491 13.1798 0.00549171 14.4558 0.00366613C15.7319 0.00184055 16.6712 0.621625 17.2316 1.77083C17.3421 1.99811 17.4671 2.04466 17.6963 2.04466C19.394 2.03614 21.0921 2.03614 22.7905 2.04466C23.6175 2.04466 24.1195 2.84062 23.7435 3.5389C23.5326 3.92957 23.1858 4.08657 22.7522 4.08657C21.0654 4.08657 19.3749 4.08657 17.6917 4.0811C17.4608 4.0811 17.3339 4.13495 17.2262 4.36224C17.0813 4.6581 16.8944 4.93142 16.6712 5.17371C16.5105 5.35079 16.4768 5.47858 16.5662 5.70312C17.9658 9.22466 19.3584 12.7486 20.7441 16.275C20.9777 16.8684 21.2059 17.4617 21.4524 18.0504C21.5026 18.1718 21.624 18.2631 21.7125 18.3681L21.8157 18.317C21.8211 18.1974 21.8321 18.0778 21.8321 17.9591C21.8321 16.7963 21.8321 15.6343 21.8321 14.4714C21.8321 13.638 22.2155 13.2537 23.0397 13.2537C25.9686 13.2537 28.8977 13.2537 31.8271 13.2537C32.6386 13.2537 33.1653 13.9703 32.8312 14.6558C32.7025 14.9205 32.4232 15.1122 32.1631 15.386C33.0831 17.4626 34.0434 19.6323 35.0046 21.8029V30.4196C34.9774 30.4918 34.9557 30.566 34.9398 30.6414C34.6897 32.614 33.1361 34.3702 31.2156 34.8403C30.9755 34.8996 30.7327 34.9462 30.4908 34.9991H29.4648C29.3906 34.9736 29.315 34.952 29.2385 34.9343C27.2166 34.5555 25.8612 33.4017 25.1866 31.4547C25.1318 31.2977 25.0953 31.1334 25.0533 30.9792H14.2112C14.1793 31.0951 14.1537 31.1937 14.1245 31.2904C13.6289 32.9471 12.6029 34.1201 10.9553 34.6951C10.5309 34.843 10.0745 34.9005 9.63175 34.9991L8.94808 35ZM32.3639 20.9038C32.3283 20.8061 32.3127 20.7532 32.2908 20.703C31.5241 18.976 30.7519 17.2517 29.9943 15.5211C29.903 15.3048 29.7633 15.2865 29.568 15.2874C27.7899 15.2874 26.0081 15.2874 24.2336 15.2874C24.1232 15.2874 24.0137 15.2984 23.8932 15.3048V20.9002L32.3639 20.9038ZM32.9316 22.9904H23.895V28.8998H25.0762C25.5325 27.1929 26.5366 25.9424 28.1997 25.3108C29.8628 24.6791 31.4356 24.9329 32.9362 25.9269L32.9316 22.9904ZM29.9422 32.9517C30.729 32.9598 31.4868 32.6551 32.0489 32.1044C32.6109 31.5538 32.9313 30.8025 32.9394 30.0157C32.9475 29.2289 32.6427 28.4712 32.0921 27.9091C31.5415 27.347 30.7902 27.0267 30.0034 27.0186C28.3814 27.0058 27.0122 28.3357 27.0012 29.934C26.9912 31.5752 28.3293 32.9481 29.9422 32.9517ZM12.2496 30.0043C12.2496 28.3348 10.9352 27.0076 9.29767 27.0204C8.90972 27.019 8.52529 27.0941 8.1664 27.2414C7.8075 27.3887 7.48119 27.6054 7.20614 27.879C6.9311 28.1526 6.71272 28.4778 6.5635 28.8359C6.41429 29.194 6.33718 29.578 6.33658 29.966C6.33202 31.6409 7.64005 32.9426 9.33053 32.9444C9.71558 32.9442 10.0968 32.8678 10.4522 32.7197C10.8076 32.5716 11.1303 32.3547 11.4016 32.0815C11.6729 31.8082 11.8874 31.484 12.033 31.1276C12.1785 30.7711 12.2522 30.3894 12.2496 30.0043ZM21.8166 27.0076H13.4189C13.6544 27.5553 13.91 28.0829 14.1062 28.6333C14.1884 28.8624 14.2779 28.9227 14.507 28.9227C16.8401 28.9144 19.1741 28.9172 21.5071 28.9163C21.6066 28.9163 21.7061 28.9053 21.8193 28.898L21.8166 27.0076ZM21.8166 24.9319C21.8166 23.6358 21.8303 22.3761 21.8093 21.1128C21.8029 20.7322 21.5519 20.462 21.2023 20.3114C20.5095 20.0129 19.7966 20.514 19.7865 21.3246C19.7719 22.451 19.782 23.5774 19.7865 24.7019C19.7929 24.7789 19.8058 24.8553 19.8249 24.9301L21.8166 24.9319ZM4.72916 8.04534C4.67531 8.84586 4.91172 9.46473 5.58718 9.85084C6.20606 10.205 6.83679 10.1685 7.41276 9.755C7.98873 9.3415 8.18863 8.75093 8.1074 8.04534H4.72916ZM4.33119 28.9008L5.18738 27.0067H2.0629V28.9008H4.33119ZM7.42828 4.10574H5.42653V5.96601H7.42828V4.10574ZM14.4568 4.08931C14.7272 4.08567 14.9858 3.97781 15.1786 3.7882C15.3714 3.59859 15.4837 3.34187 15.4919 3.07155C15.4904 2.79524 15.3795 2.53076 15.1834 2.33606C14.9874 2.14136 14.7221 2.03231 14.4458 2.0328C14.1754 2.03641 13.9174 2.14693 13.7282 2.34021C13.539 2.53349 13.4341 2.79381 13.4363 3.06425C13.4372 3.3355 13.5453 3.5954 13.7369 3.78737C13.9285 3.97935 14.1882 4.08787 14.4595 4.08931H14.4568Z" fill="#1FB3A5"/>
</svg>
