<svg width="19" height="21" viewBox="0 0 19 21" fill="none" xmlns="http://www.w3.org/2000/svg">
<path d="M17.8756 0.298584C18.2123 0.496966 18.2511 0.71296 18.001 1.02374C17.411 1.7489 16.8231 2.4782 16.2269 3.2018C16.1492 3.29607 16.1554 3.35719 16.1989 3.46959C16.2861 3.70421 16.354 3.94551 16.402 4.19113C16.4351 4.34652 16.4828 4.47083 16.6169 4.57805C17.182 5.03024 17.7332 5.499 18.2931 5.9574C18.7593 6.33759 18.996 6.83018 18.997 7.42481C19.0012 11.0889 19.0012 14.7529 18.997 18.4166C18.997 19.2832 18.4184 19.9892 17.6265 20.1291C17.5179 20.1449 17.4083 20.1516 17.2986 20.1493C14.4166 20.1493 11.5346 20.1501 8.65264 20.1518C8.22233 20.1599 7.80585 19.9997 7.49187 19.7054C5.35577 17.7707 3.23261 15.8206 1.06905 13.9165C0.10925 13.0707 0.321099 11.9441 0.894492 11.2718C3.16976 8.60906 5.43381 5.93737 7.68663 3.25671C8.1528 2.70196 8.71065 2.43624 9.44514 2.46888C11.2715 2.5502 13.0999 2.59941 14.9268 2.66778C15.088 2.67422 15.247 2.70694 15.3976 2.76464C15.5204 2.81177 15.5769 2.78277 15.652 2.68953C16.2103 1.99338 16.7722 1.3012 17.3374 0.612992C17.4296 0.500074 17.5405 0.403214 17.6425 0.298584H17.8756ZM15.0242 3.45509C14.9392 3.44629 14.8962 3.43955 14.8533 3.438C13.0523 3.37481 11.2503 3.32353 9.4498 3.24272C8.94063 3.21941 8.57909 3.39449 8.25847 3.77882C7.14224 5.11933 6.00737 6.44378 4.87975 7.77496C3.74436 9.11546 2.6088 10.4563 1.47306 11.7975C1.02502 12.3253 1.06128 12.849 1.56889 13.3064C2.73432 14.3585 3.89906 15.4117 5.06311 16.466C6.05105 17.3586 7.0383 18.2511 8.02486 19.1434C8.26106 19.3578 8.52315 19.4282 8.82927 19.336C9.09706 19.2552 9.27524 19.0626 9.45083 18.8585C10.5147 17.6008 11.5799 16.3441 12.6462 15.0882C13.8448 13.6724 15.044 12.2585 16.244 10.8465C16.4931 10.5539 16.6107 10.2296 16.5486 9.8458C16.2658 8.10646 15.9829 6.36746 15.7001 4.62881C15.668 4.43146 15.6312 4.23567 15.5898 3.99844L13.7541 6.25161C13.9183 6.3956 14.0742 6.53028 14.2281 6.66599C14.441 6.85712 14.4715 7.08036 14.3109 7.25854C14.1504 7.43672 13.9328 7.43362 13.7262 7.25543C13.2172 6.81758 12.7094 6.37817 12.2028 5.9372C11.9889 5.75073 11.9552 5.52283 12.1075 5.34568C12.2598 5.16853 12.4949 5.16957 12.7078 5.35034C12.858 5.47828 13.0077 5.60933 13.1657 5.744L15.0242 3.45509ZM16.6605 5.60363C16.654 5.62648 16.6496 5.64989 16.6475 5.67356C16.8454 6.88975 17.0241 8.10801 17.2499 9.3211C17.396 10.1027 17.3183 10.7864 16.7765 11.4184C14.7175 13.8217 12.6783 16.2422 10.6318 18.6565C10.4381 18.8849 10.2459 19.1149 10.0372 19.363C10.0952 19.3692 10.1195 19.3739 10.1408 19.3739C12.558 19.3739 14.9741 19.3739 17.3892 19.3739C17.5061 19.374 17.6214 19.3462 17.7254 19.2928C17.8293 19.2393 17.919 19.1618 17.987 19.0667C18.1499 18.8541 18.2341 18.5916 18.2252 18.3239C18.2232 16.9347 18.2232 15.5457 18.2252 14.1569C18.2252 11.9469 18.2252 9.73685 18.2252 7.52685C18.2252 7.2342 18.1905 6.9374 17.9745 6.73539C17.5565 6.3464 17.109 5.98744 16.6605 5.60363Z" fill="#1FB3A5"/>
<path d="M13.462 9.99597C13.563 9.99037 13.6623 10.0234 13.7399 10.0883C13.8174 10.1532 13.8673 10.2452 13.8795 10.3456C13.8893 10.4426 13.8617 10.5397 13.8023 10.617C13.7429 10.6943 13.6562 10.746 13.5599 10.7615C13.1295 10.8454 12.697 10.9195 12.265 10.9962C10.4873 11.3121 8.70897 11.6276 6.92992 11.9425C6.1426 12.0818 5.35529 12.2222 4.56746 12.3569C4.31313 12.4009 4.12615 12.2854 4.08057 12.0658C4.03499 11.8462 4.17432 11.6514 4.43745 11.6053C5.33768 11.4396 6.23895 11.2773 7.14125 11.1184L13.3502 10.0125L13.462 9.99597Z" fill="#1FB3A5"/>
<path d="M10.7435 14.4044C10.7435 15.3595 9.99767 16.1251 9.06843 16.1256C8.13142 16.1256 7.37622 15.3533 7.37622 14.395C7.37622 13.4508 8.13349 12.6738 9.05703 12.6718C9.993 12.6692 10.7441 13.4415 10.7435 14.4044ZM9.97021 14.4044C9.97021 13.8823 9.57241 13.4534 9.07723 13.4461C8.58205 13.4389 8.15162 13.8724 8.15007 14.3945C8.14851 14.9166 8.56444 15.3502 9.06791 15.3486C9.57138 15.3471 9.96814 14.9306 9.97021 14.4044Z" fill="#1FB3A5"/>
<path d="M7.21021 7.95211C7.21021 6.99491 7.94676 6.22986 8.87807 6.22572C9.81922 6.2221 10.5755 6.98765 10.577 7.94642C10.577 8.89378 9.82492 9.67436 8.90345 9.67954C7.96592 9.68472 7.21279 8.91398 7.21021 7.95211ZM7.98302 7.94693C7.98302 8.47734 8.39014 8.90673 8.89309 8.90414C9.39604 8.90155 9.80938 8.4649 9.80523 7.94331C9.80109 7.42171 9.39345 7.00216 8.89827 6.99957C8.38651 6.9975 7.98353 7.41394 7.98302 7.94693Z" fill="#1FB3A5"/>
</svg>
