<svg width="16" height="21" viewBox="0 0 16 21" fill="none" xmlns="http://www.w3.org/2000/svg">
<path d="M6.15503 13.773L6.14603 13.752C6.01083 13.715 5.87677 13.674 5.74403 13.629L5.73403 13.625C4.35259 13.1523 3.15351 12.2596 2.30465 11.0716C1.45579 9.88368 0.999629 8.46004 1.00003 6.99998C0.999583 5.20809 1.68633 3.48425 2.91882 2.18354C4.15131 0.882831 5.83568 0.104295 7.62499 0.00829182C9.41431 -0.087711 11.1723 0.50613 12.5369 1.6675C13.9015 2.82887 14.7687 4.46933 14.96 6.25098C15.004 6.66298 14.664 6.99998 14.25 6.99998C13.836 6.99998 13.505 6.66198 13.45 6.25198C13.317 5.28425 12.9287 4.36939 12.325 3.60142C11.7214 2.83346 10.9241 2.24009 10.0151 1.8823C9.1062 1.52452 8.11837 1.41521 7.1532 1.56563C6.18802 1.71605 5.2803 2.12076 4.52333 2.73816C3.76636 3.35557 3.18745 4.16341 2.84609 5.07865C2.50473 5.99389 2.41323 6.98352 2.58101 7.94584C2.74878 8.90815 3.16977 9.80843 3.80071 10.5542C4.43165 11.2999 5.24979 11.8642 6.17103 12.189C6.35661 11.7695 6.68074 11.4266 7.08909 11.2176C7.49744 11.0087 7.96519 10.9465 8.41396 11.0415C8.86272 11.1364 9.26521 11.3827 9.55397 11.7391C9.84273 12.0955 10.0002 12.5403 10 12.999C10 13.597 9.73803 14.133 9.32303 14.499C8.95779 14.8216 8.48734 14.9997 8.00003 15C7.60551 15.0014 7.21947 14.8855 6.89096 14.667C6.56245 14.4485 6.30629 14.1374 6.15503 13.773ZM3.99703 14.5C3.25999 14.1061 2.58507 13.6057 1.99403 13.015C1.44617 13.0787 0.940802 13.3415 0.573935 13.7533C0.207067 14.1652 0.00425564 14.6974 0.00402832 15.249V15.827C0.00402832 16.719 0.322028 17.583 0.902028 18.262C2.46803 20.096 4.85403 21.002 8.00003 21.002C11.146 21.002 13.533 20.096 15.102 18.262C15.6834 17.5827 16.0029 16.7181 16.003 15.824V15.249C16.003 14.6526 15.7663 14.0806 15.3447 13.6587C14.9232 13.2368 14.3514 12.9995 13.755 12.999H11.5C11.5 13.537 11.38 14.045 11.163 14.499H13.755C13.9536 14.4995 14.1438 14.5788 14.2841 14.7194C14.4243 14.8599 14.503 15.0504 14.503 15.249V15.824C14.5032 16.3604 14.3117 16.8793 13.963 17.287C12.706 18.755 10.739 19.501 8.00003 19.501C5.26103 19.501 3.29603 18.755 2.04303 17.288C1.6946 16.8805 1.50311 16.3621 1.50303 15.826V15.249C1.50303 15.0501 1.58205 14.8593 1.7227 14.7186C1.86335 14.578 2.05412 14.499 2.25303 14.499L3.99703 14.5ZM4.00003 6.99998C4.00021 6.31003 4.17885 5.63186 4.5186 5.03135C4.85834 4.43085 5.34764 3.92844 5.93895 3.57293C6.53025 3.21742 7.20346 3.0209 7.89316 3.00247C8.58287 2.98403 9.26561 3.14431 9.87506 3.46773C10.4845 3.79115 10.9999 4.26671 11.3713 4.84821C11.7426 5.42971 11.9572 6.09737 11.9943 6.78633C12.0313 7.47528 11.8895 8.1621 11.5826 8.78006C11.2758 9.39801 10.8143 9.92609 10.243 10.313C9.61365 9.78765 8.81984 9.49992 8.00003 9.49998C8.66307 9.49998 9.29895 9.23659 9.7678 8.76775C10.2366 8.2989 10.5 7.66302 10.5 6.99998C10.5 6.33694 10.2366 5.70105 9.7678 5.23221C9.29895 4.76337 8.66307 4.49998 8.00003 4.49998C7.33699 4.49998 6.7011 4.76337 6.23226 5.23221C5.76342 5.70105 5.50003 6.33694 5.50003 6.99998C5.50003 7.66302 5.76342 8.2989 6.23226 8.76775C6.7011 9.23659 7.33699 9.49998 8.00003 9.49998C7.14603 9.49998 6.36403 9.80598 5.75803 10.313C5.21592 9.94713 4.77205 9.45363 4.4655 8.87591C4.15894 8.2982 3.9991 7.65399 4.00003 6.99998Z" fill="black"/>
</svg>
